<svg xmlns="http://www.w3.org/2000/svg" xmlns:xlink="http://www.w3.org/1999/xlink" width="1920" zoomAndPan="magnify" viewBox="0 0 1440 809.999993" height="1080" preserveAspectRatio="xMidYMid meet" version="1.0"><defs><g/></defs><g fill="#952846" fill-opacity="1"><g transform="translate(53.31103, 423.848084)"><g><path d="M 37.203125 -122.109375 C 53.421875 -122.109375 64.65625 -119.429688 70.90625 -114.078125 C 77.164062 -108.722656 80.296875 -100.296875 80.296875 -88.796875 C 80.296875 -77.296875 78.015625 -68.632812 73.453125 -62.8125 C 80.128906 -57.289062 83.46875 -48.015625 83.46875 -34.984375 C 83.46875 -9.960938 69.109375 2.546875 40.390625 2.546875 C 36.992188 2.546875 25.914062 1.695312 7.15625 0 L 7.15625 -119.5625 C 18.175781 -121.257812 28.191406 -122.109375 37.203125 -122.109375 Z M 56.359375 -20.828125 C 58.429688 -23.160156 59.46875 -27.929688 59.46875 -35.140625 C 59.46875 -42.347656 58.671875 -46.691406 57.078125 -48.171875 C 55.492188 -49.660156 51.390625 -50.40625 44.765625 -50.40625 C 38.140625 -50.40625 33.953125 -50.296875 32.203125 -50.078125 C 30.453125 -49.867188 29.578125 -49.234375 29.578125 -48.171875 L 29.578125 -19.71875 C 29.578125 -18.550781 30.289062 -17.859375 31.71875 -17.640625 C 33.144531 -17.429688 37.09375 -17.328125 43.5625 -17.328125 C 50.03125 -17.328125 54.296875 -18.492188 56.359375 -20.828125 Z M 32.4375 -70.125 C 41.65625 -70.125 47.929688 -71.234375 51.265625 -73.453125 C 54.609375 -75.679688 56.28125 -80.613281 56.28125 -88.25 C 56.28125 -92.59375 55.351562 -96.164062 53.5 -98.96875 C 51.644531 -101.78125 49.660156 -103.1875 47.546875 -103.1875 C 38.535156 -103.1875 33.070312 -102.601562 31.15625 -101.4375 C 30.519531 -101.019531 29.992188 -100.382812 29.578125 -99.53125 L 29.578125 -72.65625 C 29.578125 -71.382812 29.785156 -70.644531 30.203125 -70.4375 C 30.953125 -70.226562 31.695312 -70.125 32.4375 -70.125 Z M 32.4375 -70.125 "/></g></g></g><g fill="#952846" fill-opacity="1"><g transform="translate(142.35098, 423.848084)"><g><path d="M 7.46875 0 L 7.46875 -78.859375 C 7.46875 -80.554688 9.375 -81.40625 13.1875 -81.40625 C 17.007812 -81.40625 20.613281 -81.140625 24 -80.609375 C 27.394531 -80.078125 29.09375 -79.492188 29.09375 -78.859375 L 29.09375 0 C 29.09375 0.632812 29.039062 1.054688 28.9375 1.265625 C 28.40625 2.117188 26.390625 2.546875 22.890625 2.546875 C 19.398438 2.546875 15.957031 2.28125 12.5625 1.75 C 9.164062 1.21875 7.46875 0.632812 7.46875 0 Z M 17.328125 -99.21875 C 9.703125 -99.21875 5.890625 -103.03125 5.890625 -110.65625 C 5.890625 -118.289062 9.703125 -122.109375 17.328125 -122.109375 C 24.960938 -122.109375 28.78125 -118.289062 28.78125 -110.65625 C 28.78125 -103.03125 24.960938 -99.21875 17.328125 -99.21875 Z M 17.328125 -99.21875 "/></g></g></g><g fill="#952846" fill-opacity="1"><g transform="translate(178.443962, 423.848084)"><g><path d="M 36.09375 2.546875 C 24.75 2.546875 16.878906 -0.523438 12.484375 -6.671875 C 8.085938 -12.828125 5.890625 -23.851562 5.890625 -39.75 C 5.890625 -51.195312 6.894531 -59.914062 8.90625 -65.90625 C 10.914062 -71.894531 13.960938 -75.972656 18.046875 -78.140625 C 22.128906 -80.316406 28.144531 -81.40625 36.09375 -81.40625 C 44.039062 -81.40625 50.054688 -80.289062 54.140625 -78.0625 C 58.222656 -75.84375 61.21875 -71.710938 63.125 -65.671875 C 65.03125 -59.628906 65.984375 -51.039062 65.984375 -39.90625 C 65.984375 -39.269531 65.984375 -38.632812 65.984375 -38 C 65.984375 -37.363281 64.738281 -36.78125 62.25 -36.25 C 59.757812 -35.71875 56.765625 -35.453125 53.265625 -35.453125 L 28.78125 -35.453125 C 28.988281 -23.054688 29.890625 -16.007812 31.484375 -14.3125 C 32.429688 -13.457031 33.96875 -13.03125 36.09375 -13.03125 C 49.976562 -13.03125 59.460938 -13.722656 64.546875 -15.109375 C 64.765625 -15.210938 64.925781 -15.265625 65.03125 -15.265625 C 65.769531 -15.472656 66.378906 -15.046875 66.859375 -13.984375 C 67.335938 -12.929688 67.578125 -10.441406 67.578125 -6.515625 C 67.578125 -2.597656 66.726562 -0.425781 65.03125 0 C 60.6875 1.695312 51.039062 2.546875 36.09375 2.546875 Z M 28.78125 -60.578125 L 28.78125 -48.171875 L 44.84375 -48.171875 C 44.414062 -60.472656 43.195312 -66.625 41.1875 -66.625 C 37.582031 -66.625 34.613281 -66.09375 32.28125 -65.03125 C 29.945312 -63.96875 28.78125 -62.484375 28.78125 -60.578125 Z M 28.78125 -60.578125 "/></g></g></g><g fill="#952846" fill-opacity="1"><g transform="translate(250.629913, 423.848084)"><g><path d="M 48.015625 -81.40625 C 55.859375 -81.40625 61.609375 -78.96875 65.265625 -74.09375 C 68.921875 -69.21875 70.75 -60.632812 70.75 -48.34375 L 70.75 0 C 70.75 0.632812 70.695312 1.054688 70.59375 1.265625 C 70.0625 2.117188 68.019531 2.546875 64.46875 2.546875 C 60.914062 2.546875 57.285156 2.28125 53.578125 1.75 C 49.867188 1.21875 48.015625 0.632812 48.015625 0 L 47.859375 -48.34375 C 47.859375 -60.207031 47.007812 -66.140625 45.3125 -66.140625 C 41.5 -66.140625 36.410156 -64.234375 30.046875 -60.421875 L 30.046875 0 C 30.046875 0.632812 29.992188 1.054688 29.890625 1.265625 C 29.359375 2.117188 27.316406 2.546875 23.765625 2.546875 C 20.210938 2.546875 16.554688 2.28125 12.796875 1.75 C 9.035156 1.21875 7.15625 0.632812 7.15625 0 L 7.15625 -78.859375 C 7.15625 -80.554688 9.273438 -81.40625 13.515625 -81.40625 C 20.191406 -81.40625 24.007812 -80.554688 24.96875 -78.859375 C 24.96875 -78.648438 25.019531 -78.546875 25.125 -78.546875 L 28.140625 -72.5 C 37.046875 -78.4375 43.671875 -81.40625 48.015625 -81.40625 Z M 48.015625 -81.40625 "/></g></g></g><g fill="#952846" fill-opacity="1"><g transform="translate(328.221859, 423.848084)"><g><path d="M 3.34375 -79.34375 C 3.34375 -80.71875 5.273438 -81.40625 9.140625 -81.40625 C 13.015625 -81.40625 16.617188 -81.140625 19.953125 -80.609375 C 23.296875 -80.078125 25.019531 -79.492188 25.125 -78.859375 L 39.265625 -19.390625 L 51.671875 -78.859375 C 52.097656 -80.554688 53.796875 -81.40625 56.765625 -81.40625 C 59.734375 -81.40625 62.222656 -81.300781 64.234375 -81.09375 C 69.109375 -80.5625 71.441406 -79.816406 71.234375 -78.859375 L 71.078125 -78.546875 L 51.203125 0 C 50.773438 1.695312 48.734375 2.546875 45.078125 2.546875 C 41.421875 2.546875 37.550781 2.28125 33.46875 1.75 C 29.382812 1.21875 27.238281 0.632812 27.03125 0 L 3.5 -78.546875 L 3.5 -78.859375 C 3.394531 -79.078125 3.34375 -79.238281 3.34375 -79.34375 Z M 3.34375 -79.34375 "/></g></g></g><g fill="#952846" fill-opacity="1"><g transform="translate(402.951821, 423.848084)"><g><path d="M 36.09375 2.546875 C 24.75 2.546875 16.878906 -0.523438 12.484375 -6.671875 C 8.085938 -12.828125 5.890625 -23.851562 5.890625 -39.75 C 5.890625 -51.195312 6.894531 -59.914062 8.90625 -65.90625 C 10.914062 -71.894531 13.960938 -75.972656 18.046875 -78.140625 C 22.128906 -80.316406 28.144531 -81.40625 36.09375 -81.40625 C 44.039062 -81.40625 50.054688 -80.289062 54.140625 -78.0625 C 58.222656 -75.84375 61.21875 -71.710938 63.125 -65.671875 C 65.03125 -59.628906 65.984375 -51.039062 65.984375 -39.90625 C 65.984375 -39.269531 65.984375 -38.632812 65.984375 -38 C 65.984375 -37.363281 64.738281 -36.78125 62.25 -36.25 C 59.757812 -35.71875 56.765625 -35.453125 53.265625 -35.453125 L 28.78125 -35.453125 C 28.988281 -23.054688 29.890625 -16.007812 31.484375 -14.3125 C 32.429688 -13.457031 33.96875 -13.03125 36.09375 -13.03125 C 49.976562 -13.03125 59.460938 -13.722656 64.546875 -15.109375 C 64.765625 -15.210938 64.925781 -15.265625 65.03125 -15.265625 C 65.769531 -15.472656 66.378906 -15.046875 66.859375 -13.984375 C 67.335938 -12.929688 67.578125 -10.441406 67.578125 -6.515625 C 67.578125 -2.597656 66.726562 -0.425781 65.03125 0 C 60.6875 1.695312 51.039062 2.546875 36.09375 2.546875 Z M 28.78125 -60.578125 L 28.78125 -48.171875 L 44.84375 -48.171875 C 44.414062 -60.472656 43.195312 -66.625 41.1875 -66.625 C 37.582031 -66.625 34.613281 -66.09375 32.28125 -65.03125 C 29.945312 -63.96875 28.78125 -62.484375 28.78125 -60.578125 Z M 28.78125 -60.578125 "/></g></g></g><g fill="#952846" fill-opacity="1"><g transform="translate(475.137761, 423.848084)"><g><path d="M 48.015625 -81.40625 C 55.859375 -81.40625 61.609375 -78.96875 65.265625 -74.09375 C 68.921875 -69.21875 70.75 -60.632812 70.75 -48.34375 L 70.75 0 C 70.75 0.632812 70.695312 1.054688 70.59375 1.265625 C 70.0625 2.117188 68.019531 2.546875 64.46875 2.546875 C 60.914062 2.546875 57.285156 2.28125 53.578125 1.75 C 49.867188 1.21875 48.015625 0.632812 48.015625 0 L 47.859375 -48.34375 C 47.859375 -60.207031 47.007812 -66.140625 45.3125 -66.140625 C 41.5 -66.140625 36.410156 -64.234375 30.046875 -60.421875 L 30.046875 0 C 30.046875 0.632812 29.992188 1.054688 29.890625 1.265625 C 29.359375 2.117188 27.316406 2.546875 23.765625 2.546875 C 20.210938 2.546875 16.554688 2.28125 12.796875 1.75 C 9.035156 1.21875 7.15625 0.632812 7.15625 0 L 7.15625 -78.859375 C 7.15625 -80.554688 9.273438 -81.40625 13.515625 -81.40625 C 20.191406 -81.40625 24.007812 -80.554688 24.96875 -78.859375 C 24.96875 -78.648438 25.019531 -78.546875 25.125 -78.546875 L 28.140625 -72.5 C 37.046875 -78.4375 43.671875 -81.40625 48.015625 -81.40625 Z M 48.015625 -81.40625 "/></g></g></g><g fill="#952846" fill-opacity="1"><g transform="translate(552.729707, 423.848084)"><g><path d="M 7.46875 0 L 7.46875 -78.859375 C 7.46875 -80.554688 9.375 -81.40625 13.1875 -81.40625 C 17.007812 -81.40625 20.613281 -81.140625 24 -80.609375 C 27.394531 -80.078125 29.09375 -79.492188 29.09375 -78.859375 L 29.09375 0 C 29.09375 0.632812 29.039062 1.054688 28.9375 1.265625 C 28.40625 2.117188 26.390625 2.546875 22.890625 2.546875 C 19.398438 2.546875 15.957031 2.28125 12.5625 1.75 C 9.164062 1.21875 7.46875 0.632812 7.46875 0 Z M 17.328125 -99.21875 C 9.703125 -99.21875 5.890625 -103.03125 5.890625 -110.65625 C 5.890625 -118.289062 9.703125 -122.109375 17.328125 -122.109375 C 24.960938 -122.109375 28.78125 -118.289062 28.78125 -110.65625 C 28.78125 -103.03125 24.960938 -99.21875 17.328125 -99.21875 Z M 17.328125 -99.21875 "/></g></g></g><g fill="#952846" fill-opacity="1"><g transform="translate(588.822676, 423.848084)"><g><path d="M 25.4375 2.546875 C 17.59375 2.546875 11.84375 -0.65625 8.1875 -7.0625 C 4.53125 -13.476562 2.703125 -24.632812 2.703125 -40.53125 C 2.703125 -56.4375 5.003906 -67.222656 9.609375 -72.890625 C 14.222656 -78.566406 22.945312 -81.40625 35.78125 -81.40625 L 43.40625 -81.40625 L 43.40625 -119.5625 C 43.40625 -121.257812 45.257812 -122.109375 48.96875 -122.109375 C 52.675781 -122.109375 55.75 -121.867188 58.1875 -121.390625 C 60.625 -120.921875 61.898438 -120.3125 62.015625 -119.5625 L 64.71875 -68.84375 L 64.71875 0 C 64.71875 0.632812 64.660156 1.054688 64.546875 1.265625 C 64.023438 2.117188 62.066406 2.546875 58.671875 2.546875 C 55.273438 2.546875 52.382812 2.304688 50 1.828125 C 47.613281 1.347656 46.421875 0.738281 46.421875 0 L 43.40625 -4.921875 C 40.332031 -2.910156 38.160156 -1.484375 36.890625 -0.640625 C 33.390625 1.484375 29.570312 2.546875 25.4375 2.546875 Z M 35.78125 -66.140625 C 31.851562 -66.140625 29.171875 -64.519531 27.734375 -61.28125 C 26.304688 -58.050781 25.59375 -52.59375 25.59375 -44.90625 C 25.59375 -37.226562 25.617188 -32.171875 25.671875 -29.734375 C 25.734375 -27.296875 25.816406 -24.488281 25.921875 -21.3125 C 26.128906 -15.582031 26.867188 -12.71875 28.140625 -12.71875 C 31.953125 -12.71875 37.039062 -14.625 43.40625 -18.4375 L 43.40625 -66.140625 Z M 35.78125 -66.140625 "/></g></g></g><g fill="#952846" fill-opacity="1"><g transform="translate(660.531626, 423.848084)"><g><path d="M 5.890625 -39.75 C 5.890625 -51.300781 6.894531 -60.046875 8.90625 -65.984375 C 10.914062 -71.921875 14.09375 -75.972656 18.4375 -78.140625 C 22.789062 -80.316406 29.207031 -81.40625 37.6875 -81.40625 C 46.164062 -81.40625 52.578125 -80.316406 56.921875 -78.140625 C 61.265625 -75.972656 64.441406 -71.921875 66.453125 -65.984375 C 68.472656 -60.046875 69.484375 -51.300781 69.484375 -39.75 C 69.484375 -23.851562 67.203125 -12.828125 62.640625 -6.671875 C 58.085938 -0.523438 49.769531 2.546875 37.6875 2.546875 C 25.601562 2.546875 17.28125 -0.523438 12.71875 -6.671875 C 8.164062 -12.828125 5.890625 -23.851562 5.890625 -39.75 Z M 27.5 -39.75 C 27.5 -21.9375 29.195312 -13.03125 32.59375 -13.03125 C 37.257812 -13.03125 40.707031 -13.773438 42.9375 -15.265625 C 44.09375 -16.109375 44.882812 -17.644531 45.3125 -19.875 C 46.164062 -24.320312 46.59375 -30.945312 46.59375 -39.75 C 46.59375 -57.34375 44.894531 -66.140625 41.5 -66.140625 C 35.132812 -66.140625 31.207031 -64.679688 29.71875 -61.765625 C 28.238281 -58.859375 27.5 -51.519531 27.5 -39.75 Z M 27.5 -39.75 "/></g></g></g><g fill="#952846" fill-opacity="1"><g transform="translate(735.897604, 423.848084)"><g/></g></g><g fill="#952846" fill-opacity="1"><g transform="translate(778.191578, 423.848084)"><g><path d="M 43.5625 -4.921875 C 38.050781 0.0546875 33.148438 2.546875 28.859375 2.546875 C 24.566406 2.546875 21.09375 2.253906 18.4375 1.671875 C 15.789062 1.085938 13.40625 -0.179688 11.28125 -2.140625 C 9.164062 -4.109375 7.679688 -6.945312 6.828125 -10.65625 C 5.984375 -14.363281 5.5625 -19.289062 5.5625 -25.4375 C 5.5625 -34.019531 9.75 -39.90625 18.125 -43.09375 L 40.859375 -48.96875 C 40.753906 -55.863281 40.066406 -60.316406 38.796875 -62.328125 C 37.523438 -64.335938 34.769531 -65.34375 30.53125 -65.34375 C 26.289062 -65.34375 22.632812 -64.65625 19.5625 -63.28125 L 13.984375 -61.0625 L 13.828125 -61.0625 C 12.878906 -60.53125 12.03125 -60.953125 11.28125 -62.328125 C 9.375 -66.359375 8.421875 -69.507812 8.421875 -71.78125 C 8.421875 -74.0625 8.609375 -75.332031 8.984375 -75.59375 C 9.359375 -75.863281 9.546875 -76.050781 9.546875 -76.15625 C 14.835938 -79.65625 21.695312 -81.40625 30.125 -81.40625 C 38.550781 -81.40625 45.039062 -80.289062 49.59375 -78.0625 C 54.15625 -75.84375 57.46875 -71.789062 59.53125 -65.90625 C 61.601562 -60.019531 62.640625 -51.300781 62.640625 -39.75 L 62.328125 0 C 62.328125 0.632812 62.222656 1.054688 62.015625 1.265625 C 61.585938 2.117188 59.570312 2.546875 55.96875 2.546875 C 49.394531 2.546875 46.109375 1.695312 46.109375 0 Z M 23.21875 -25.125 C 23.21875 -17.488281 25.441406 -13.457031 29.890625 -13.03125 C 32.960938 -13.03125 35.1875 -13.5625 36.5625 -14.625 C 39.53125 -16.644531 41.015625 -24.171875 41.015625 -37.203125 C 35.503906 -36.460938 31.160156 -34.953125 27.984375 -32.671875 C 24.804688 -30.390625 23.21875 -27.875 23.21875 -25.125 Z M 23.21875 -25.125 "/></g></g></g><g fill="#952846" fill-opacity="1"><g transform="translate(847.356553, 423.848084)"><g/></g></g><g fill="#952846" fill-opacity="1"><g transform="translate(889.650527, 423.848084)"><g><path d="M 69.328125 -18.765625 C 71.972656 -18.765625 73.296875 -17.066406 73.296875 -13.671875 C 73.296875 -10.285156 73.242188 -7.742188 73.140625 -6.046875 C 72.710938 -2.222656 71.015625 -0.046875 68.046875 0.484375 C 58.617188 1.859375 51.625 2.546875 47.0625 2.546875 C 31.269531 2.546875 20.40625 -1.90625 14.46875 -10.8125 C 8.53125 -19.71875 5.5625 -35.773438 5.5625 -58.984375 C 5.5625 -75.941406 6.859375 -88.898438 9.453125 -97.859375 C 12.054688 -106.816406 16.242188 -113.097656 22.015625 -116.703125 C 27.796875 -120.304688 36.4375 -122.109375 47.9375 -122.109375 C 59.4375 -122.109375 67.835938 -120.304688 73.140625 -116.703125 C 74.203125 -115.960938 74.734375 -115.0625 74.734375 -114 C 74.734375 -112.9375 74.226562 -110.945312 73.21875 -108.03125 C 72.207031 -105.125 71.25 -103.0625 70.34375 -101.84375 C 69.445312 -100.625 68.519531 -100.015625 67.5625 -100.015625 C 66.613281 -100.015625 65.875 -100.066406 65.34375 -100.171875 C 57.394531 -101.765625 50.53125 -102.5625 44.75 -102.5625 C 38.976562 -102.5625 35.21875 -99.378906 33.46875 -93.015625 C 31.71875 -86.648438 30.84375 -76.335938 30.84375 -62.078125 C 30.84375 -47.828125 31.210938 -37.890625 31.953125 -32.265625 C 32.703125 -26.648438 34.082031 -22.726562 36.09375 -20.5 C 38.101562 -18.28125 41.304688 -17.171875 45.703125 -17.171875 C 50.109375 -17.171875 55.09375 -17.4375 60.65625 -17.96875 C 66.21875 -18.5 69.109375 -18.765625 69.328125 -18.765625 Z M 69.328125 -18.765625 "/></g></g></g><g fill="#952846" fill-opacity="1"><g transform="translate(968.832469, 423.848084)"><g><path d="M 48.015625 -81.40625 C 55.859375 -81.40625 61.609375 -78.96875 65.265625 -74.09375 C 68.921875 -69.21875 70.75 -60.632812 70.75 -48.34375 L 70.75 0 C 70.75 0.632812 70.695312 1.054688 70.59375 1.265625 C 70.0625 2.117188 68.019531 2.546875 64.46875 2.546875 C 60.914062 2.546875 57.285156 2.28125 53.578125 1.75 C 49.867188 1.21875 48.015625 0.632812 48.015625 0 L 47.859375 -48.34375 C 47.859375 -60.207031 47.007812 -66.140625 45.3125 -66.140625 C 41.5 -66.140625 36.410156 -64.234375 30.046875 -60.421875 L 30.046875 0 C 30.046875 0.632812 29.992188 1.054688 29.890625 1.265625 C 29.359375 2.117188 27.316406 2.546875 23.765625 2.546875 C 20.210938 2.546875 16.554688 2.28125 12.796875 1.75 C 9.035156 1.21875 7.15625 0.632812 7.15625 0 L 7.15625 -119.5625 C 7.15625 -121.257812 9.035156 -122.109375 12.796875 -122.109375 C 16.554688 -122.109375 19.816406 -121.867188 22.578125 -121.390625 C 25.335938 -120.921875 26.769531 -120.3125 26.875 -119.5625 L 29.734375 -73.609375 C 37.785156 -78.804688 43.878906 -81.40625 48.015625 -81.40625 Z M 48.015625 -81.40625 "/></g></g></g><g fill="#952846" fill-opacity="1"><g transform="translate(1042.608405, 423.848084)"><g><path d="M 36.09375 2.546875 C 24.75 2.546875 16.878906 -0.523438 12.484375 -6.671875 C 8.085938 -12.828125 5.890625 -23.851562 5.890625 -39.75 C 5.890625 -51.195312 6.894531 -59.914062 8.90625 -65.90625 C 10.914062 -71.894531 13.960938 -75.972656 18.046875 -78.140625 C 22.128906 -80.316406 28.144531 -81.40625 36.09375 -81.40625 C 44.039062 -81.40625 50.054688 -80.289062 54.140625 -78.0625 C 58.222656 -75.84375 61.21875 -71.710938 63.125 -65.671875 C 65.03125 -59.628906 65.984375 -51.039062 65.984375 -39.90625 C 65.984375 -39.269531 65.984375 -38.632812 65.984375 -38 C 65.984375 -37.363281 64.738281 -36.78125 62.25 -36.25 C 59.757812 -35.71875 56.765625 -35.453125 53.265625 -35.453125 L 28.78125 -35.453125 C 28.988281 -23.054688 29.890625 -16.007812 31.484375 -14.3125 C 32.429688 -13.457031 33.96875 -13.03125 36.09375 -13.03125 C 49.976562 -13.03125 59.460938 -13.722656 64.546875 -15.109375 C 64.765625 -15.210938 64.925781 -15.265625 65.03125 -15.265625 C 65.769531 -15.472656 66.378906 -15.046875 66.859375 -13.984375 C 67.335938 -12.929688 67.578125 -10.441406 67.578125 -6.515625 C 67.578125 -2.597656 66.726562 -0.425781 65.03125 0 C 60.6875 1.695312 51.039062 2.546875 36.09375 2.546875 Z M 28.78125 -60.578125 L 28.78125 -48.171875 L 44.84375 -48.171875 C 44.414062 -60.472656 43.195312 -66.625 41.1875 -66.625 C 37.582031 -66.625 34.613281 -66.09375 32.28125 -65.03125 C 29.945312 -63.96875 28.78125 -62.484375 28.78125 -60.578125 Z M 28.78125 -60.578125 "/></g></g></g><g fill="#952846" fill-opacity="1"><g transform="translate(1114.794345, 423.848084)"><g><path d="M 58.984375 -76 C 59.734375 -75.570312 60.109375 -74.585938 60.109375 -73.046875 C 60.109375 -71.515625 59.734375 -69.476562 58.984375 -66.9375 C 57.609375 -62.269531 56.125 -60.3125 54.53125 -61.0625 L 54.375 -61.0625 L 48.8125 -63.28125 C 45.738281 -64.65625 42 -65.34375 37.59375 -65.34375 C 33.195312 -65.34375 30.390625 -63.539062 29.171875 -59.9375 C 27.953125 -56.332031 27.34375 -49.390625 27.34375 -39.109375 C 27.34375 -28.828125 28.109375 -21.910156 29.640625 -18.359375 C 31.179688 -14.804688 34.128906 -13.03125 38.484375 -13.03125 C 44.734375 -13.03125 49.609375 -13.398438 53.109375 -14.140625 C 56.609375 -14.890625 58.410156 -15.265625 58.515625 -15.265625 C 59.253906 -15.472656 59.863281 -15.046875 60.34375 -13.984375 C 60.820312 -12.929688 61.0625 -10.441406 61.0625 -6.515625 C 61.0625 -2.597656 60.210938 -0.425781 58.515625 0 C 51.941406 1.695312 45.472656 2.546875 39.109375 2.546875 C 26.285156 2.546875 17.515625 -0.5 12.796875 -6.59375 C 8.078125 -12.6875 5.71875 -23.738281 5.71875 -39.75 C 5.71875 -51.300781 6.75 -60.019531 8.8125 -65.90625 C 10.882812 -71.789062 14.195312 -75.84375 18.75 -78.0625 C 23.3125 -80.289062 29.9375 -81.40625 38.625 -81.40625 C 47.320312 -81.40625 54.054688 -79.601562 58.828125 -76 Z M 58.984375 -76 "/></g></g></g><g fill="#952846" fill-opacity="1"><g transform="translate(1180.143311, 423.848084)"><g><path d="M 28.78125 0 C 28.78125 0.632812 28.726562 1.054688 28.625 1.265625 C 28.09375 2.117188 26.078125 2.546875 22.578125 2.546875 C 19.078125 2.546875 15.628906 2.28125 12.234375 1.75 C 8.847656 1.21875 7.15625 0.632812 7.15625 0 L 7.15625 -119.5625 C 7.15625 -121.257812 9.007812 -122.109375 12.71875 -122.109375 C 16.425781 -122.109375 19.5 -121.867188 21.9375 -121.390625 C 24.375 -120.921875 25.648438 -120.3125 25.765625 -119.5625 L 28.78125 -68.53125 Z M 76.3125 0.796875 C 76.3125 1.960938 74.347656 2.546875 70.421875 2.546875 C 66.503906 2.546875 62.691406 2.28125 58.984375 1.75 C 55.273438 1.21875 53.265625 0.632812 52.953125 0 L 52.78125 -0.15625 L 32.125 -43.25 L 32.125 -48.34375 L 48.96875 -78.703125 C 49.070312 -78.703125 49.125 -78.753906 49.125 -78.859375 C 50.082031 -80.554688 52.203125 -81.40625 55.484375 -81.40625 C 63.015625 -81.40625 67.835938 -80.769531 69.953125 -79.5 C 70.378906 -79.289062 70.539062 -79.078125 70.4375 -78.859375 L 52.46875 -48.34375 L 76.15625 0 C 76.257812 0.320312 76.3125 0.585938 76.3125 0.796875 Z M 76.3125 0.796875 "/></g></g></g><g fill="#952846" fill-opacity="1"><g transform="translate(1257.417293, 423.848084)"><g><path d="M 9.375 -19.234375 L 15.109375 -19.234375 L 15.109375 -100.484375 L 10.328125 -100.484375 C 8.210938 -100.585938 6.785156 -101.28125 6.046875 -102.5625 C 5.296875 -104.039062 4.921875 -106.738281 4.921875 -110.65625 C 4.921875 -116.59375 6.671875 -119.5625 10.171875 -119.5625 L 38.3125 -119.5625 C 42.976562 -119.5625 45.3125 -117.921875 45.3125 -114.640625 C 45.3125 -105.203125 43.457031 -100.484375 39.75 -100.484375 L 35.78125 -100.484375 L 37.359375 -68.6875 L 37.53125 -19.234375 L 42.296875 -19.234375 C 46.003906 -19.128906 47.859375 -17.4375 47.859375 -14.15625 C 47.648438 -4.71875 45.050781 0 40.0625 0 L 10.015625 0 C 8.109375 -0.101562 6.785156 -0.789062 6.046875 -2.0625 C 5.296875 -3.550781 4.921875 -6.304688 4.921875 -10.328125 C 4.921875 -16.265625 6.40625 -19.234375 9.375 -19.234375 Z M 9.375 -19.234375 "/></g></g></g><g fill="#952846" fill-opacity="1"><g transform="translate(1309.092217, 423.848084)"><g><path d="M 48.015625 -81.40625 C 55.859375 -81.40625 61.609375 -78.96875 65.265625 -74.09375 C 68.921875 -69.21875 70.75 -60.632812 70.75 -48.34375 L 70.75 0 C 70.75 0.632812 70.695312 1.054688 70.59375 1.265625 C 70.0625 2.117188 68.019531 2.546875 64.46875 2.546875 C 60.914062 2.546875 57.285156 2.28125 53.578125 1.75 C 49.867188 1.21875 48.015625 0.632812 48.015625 0 L 47.859375 -48.34375 C 47.859375 -60.207031 47.007812 -66.140625 45.3125 -66.140625 C 41.5 -66.140625 36.410156 -64.234375 30.046875 -60.421875 L 30.046875 0 C 30.046875 0.632812 29.992188 1.054688 29.890625 1.265625 C 29.359375 2.117188 27.316406 2.546875 23.765625 2.546875 C 20.210938 2.546875 16.554688 2.28125 12.796875 1.75 C 9.035156 1.21875 7.15625 0.632812 7.15625 0 L 7.15625 -78.859375 C 7.15625 -80.554688 9.273438 -81.40625 13.515625 -81.40625 C 20.191406 -81.40625 24.007812 -80.554688 24.96875 -78.859375 C 24.96875 -78.648438 25.019531 -78.546875 25.125 -78.546875 L 28.140625 -72.5 C 37.046875 -78.4375 43.671875 -81.40625 48.015625 -81.40625 Z M 48.015625 -81.40625 "/></g></g></g></svg>